#Comment line ignore any data following # character 
#Hierarchical Translation and Rotation (.htr) file 
[Header]	
#Header keywords are followed by a single value 
FileType HTR		#Single word string
DataType HTRS		#Translation followed by rotation and scale data
FileVersion 1		#integer
NumSegments 23		#integer
NumFrames 4		#integer
DataFrameRate 30		#integer, data frame rate in this file
EulerRotationOrder ZYX
CalibrationUnits mm
RotationUnits Degrees
GlobalAxisofGravity Y
BoneLengthAxis Y
ScaleFactor 1.00
[SegmentNames&Hierarchy]
#CHILD	PARENT
MASTER GLOBAL
weapon MASTER
arm_lock_bottom_part1 weapon
arm_lock_bottom_part2 weapon
arm_lock_bottom_part3 weapon
arm_lock_bottom_part4 weapon
arm_lock_top_part1 weapon
arm_lock_top_part2 weapon
arm_lock_top_part3 weapon
front_lower_left_part1 weapon
front_lower_right_part1 weapon
front_top_left_part weapon
front_top_right_part1 weapon
scope_part1 weapon
scope_part2 weapon
front_lower_left_part2 front_lower_left_part1
front_lower_left_part3 front_lower_left_part2
front_lower_right_part2 front_lower_right_part1
front_lower_right_part3 front_lower_right_part2
front_top_left_part2 front_top_left_part
front_top_left_part3 front_top_left_part2
front_top_right_part2 front_top_right_part1
front_top_right_part3 front_top_right_part2
[BasePosition]
#SegmentName Tx, Ty, Tz, Rx, Ry, Rz, BoneLength
MASTER 0.000000 0.000000 0.000000 -90.000000 0.000000 0.000000 10.000000 
weapon 0.000000 0.000000 0.000000 0.000000 0.000000 0.000000 10.000000 
arm_lock_bottom_part1 0.000000 0.000000 0.000000 0.000000 0.000000 0.000000 10.000000 
arm_lock_bottom_part2 0.000000 0.000000 0.000000 0.000000 0.000000 0.000000 10.000000 
arm_lock_bottom_part3 0.000000 0.000000 0.000000 0.000000 0.000000 0.000000 10.000000 
arm_lock_bottom_part4 0.000000 0.000000 0.000000 0.000000 0.000000 0.000000 10.000000 
arm_lock_top_part1 0.000000 0.000000 0.000000 0.000000 0.000000 0.000000 10.000000 
arm_lock_top_part2 0.000000 0.000000 0.000000 0.000000 0.000000 0.000000 10.000000 
arm_lock_top_part3 0.000000 0.000000 0.000000 0.000000 0.000000 0.000000 10.000000 
front_lower_left_part1 0.000000 0.000000 0.000000 0.000000 0.000000 0.000000 10.000000 
front_lower_right_part1 0.000000 0.000000 0.000000 0.000000 0.000000 0.000000 10.000000 
front_top_left_part 0.000000 0.000000 0.000000 0.000000 0.000000 0.000000 10.000000 
front_top_right_part1 0.000000 0.000000 0.000000 0.000000 0.000000 0.000000 10.000000 
scope_part1 0.000000 0.000000 0.000000 0.000000 0.000000 0.000000 10.000000 
scope_part2 0.000000 0.000000 0.000000 0.000000 0.000000 0.000000 10.000000 
front_lower_left_part2 0.000000 0.000000 0.000000 0.000000 0.000000 0.000000 10.000000 
front_lower_left_part3 0.000000 0.000000 0.000000 0.000000 0.000000 0.000000 10.000000 
front_lower_right_part2 0.000000 0.000000 0.000000 0.000000 0.000000 0.000000 10.000000 
front_lower_right_part3 0.000000 0.000000 0.000000 0.000000 0.000000 0.000000 10.000000 
front_top_left_part2 0.000000 0.000000 0.000000 0.000000 0.000000 0.000000 10.000000 
front_top_left_part3 0.000000 0.000000 0.000000 0.000000 0.000000 0.000000 10.000000 
front_top_right_part2 0.000000 0.000000 0.000000 0.000000 0.000000 0.000000 10.000000 
front_top_right_part3 0.000000 0.000000 0.000000 0.000000 0.000000 0.000000 10.000000 
#Beginning of Data. Separated by tabs
#Fr	Tx	Ty	Tz	Rx	Ry	Rz	SF
[MASTER]
64 0.000000 -0.000019 0.000002 0.002458 -0.000000 0.000000 0.000019
65 0.000000 -0.000019 0.000002 0.002458 -0.000000 0.000000 0.000019
66 0.000000 -0.000019 0.000002 0.002458 -0.000000 0.000000 0.000019
67 0.000000 -0.000019 0.000002 0.002458 -0.000000 0.000000 0.000019
[weapon]
64 10.182457 -168.977844 -13.084106 -0.002473 -0.000000 -0.000020 169.789246
65 10.182476 -168.977844 -13.084106 -0.002473 -0.000000 -0.000020 169.789246
66 10.182457 -168.977844 -13.084106 -0.002473 -0.000000 -0.000020 169.789246
67 10.182457 -168.977844 -13.084106 -0.002473 -0.000000 -0.000020 169.789246
[arm_lock_bottom_part1]
64 -48.820000 98.566208 -83.498993 179.999985 0.000004 9.388626 138.096970
65 -48.820000 98.566170 -83.498993 179.999985 0.000004 9.388626 138.096939
66 -48.820000 98.566208 -83.498993 179.999985 0.000004 9.388626 138.096970
67 -48.820000 98.566208 -83.498993 179.999985 0.000004 9.388626 138.096970
[arm_lock_bottom_part2]
64 -49.022766 58.782005 -78.526535 -179.999985 -0.000001 6.576765 109.658440
65 -49.022766 58.781967 -78.526535 -179.999985 -0.000001 6.576765 109.658417
66 -49.022766 58.782005 -78.526535 -179.999985 -0.000001 6.576765 109.658440
67 -49.022766 58.782005 -78.526535 -179.999985 -0.000001 6.576765 109.658440
[arm_lock_bottom_part3]
64 -51.266422 -16.798210 -66.920395 -179.999985 -0.000001 4.326176 85.957924
65 -51.266422 -16.798248 -66.920395 -179.999985 -0.000001 4.326176 85.957932
66 -51.266422 -16.798210 -66.920395 -179.999985 -0.000001 4.326176 85.957924
67 -51.266422 -16.798210 -66.920395 -179.999985 -0.000001 4.326176 85.957924
[arm_lock_bottom_part4]
64 -40.078102 -93.503113 -59.330063 -179.999985 -0.000000 1.322129 117.767326
65 -40.078083 -93.503136 -59.330063 -179.999985 -0.000000 1.322129 117.767326
66 -40.078102 -93.503113 -59.330063 -179.999985 -0.000000 1.322129 117.767326
67 -40.078102 -93.503113 -59.330063 -179.999985 -0.000000 1.322129 117.767326
[arm_lock_top_part1]
64 -47.532558 61.554489 78.379364 0.000000 -0.000000 -9.999999 110.415680
65 -47.532558 61.554451 78.379364 0.000000 -0.000000 -9.999999 110.415672
66 -47.532558 61.554489 78.379364 0.000000 -0.000000 -9.999999 110.415680
67 -47.532558 61.554489 78.379364 0.000000 -0.000000 -9.999999 110.415680
[arm_lock_top_part2]
64 -45.622673 13.709908 63.393555 0.000000 -0.000000 -7.722126 79.297745
65 -45.622673 13.709869 63.393555 0.000000 -0.000000 -7.722126 79.297745
66 -45.622673 13.709908 63.393555 0.000000 -0.000000 -7.722126 79.297745
67 -45.622673 13.709908 63.393555 0.000000 -0.000000 -7.722126 79.297745
[arm_lock_top_part3]
64 -43.788544 -73.747208 72.061615 0.000000 0.000000 -4.533067 112.022163
65 -43.788525 -73.747253 72.061615 0.000000 0.000000 -4.533067 112.022179
66 -43.788544 -73.747208 72.061615 0.000000 0.000000 -4.533067 112.022163
67 -43.788544 -73.747208 72.061615 0.000000 0.000000 -4.533067 112.022163
[front_lower_left_part1]
64 -46.798534 475.071045 -43.538895 -17.980034 0.000051 32.194077 479.351898
65 -46.798534 475.071014 -43.538895 -17.980034 0.000051 32.194077 479.351868
66 -46.798534 475.071045 -43.538895 -17.980034 0.000051 32.194077 479.351898
67 -46.798534 475.071045 -43.538895 -17.980036 0.000052 32.194084 479.351898
[front_lower_right_part1]
64 26.433468 475.070984 -43.538742 -17.167982 -0.000012 -27.317894 477.793671
65 26.433447 475.070953 -43.538895 -17.167982 -0.000012 -27.317894 477.793640
66 26.433468 475.070984 -43.538742 -17.167982 -0.000012 -27.317896 477.793671
67 26.433468 475.070984 -43.538742 -17.167982 -0.000012 -27.317896 477.793671
[front_top_left_part]
64 -47.897224 494.788910 7.030945 -0.000000 0.000003 -0.000001 497.151520
65 -47.897224 494.788879 7.030945 -0.000000 0.000003 -0.000001 497.151489
66 -47.897224 494.788910 7.030945 -0.000000 0.000003 -0.000001 497.151520
67 -47.897224 494.788910 7.030945 -0.000000 0.000003 -0.000001 497.151520
[front_top_right_part1]
64 27.532139 494.788910 7.031097 0.000000 -0.000000 -0.000000 495.604218
65 27.532156 494.788879 7.031097 0.000000 -0.000000 -0.000000 495.604187
66 27.532139 494.788910 7.031097 0.000000 -0.000000 -0.000000 495.604218
67 27.532139 494.788910 7.031097 0.000000 -0.000000 -0.000000 495.604218
[scope_part1]
64 -10.754299 87.338936 156.453094 -5.053902 -13.948323 1.221200 179.502960
65 -10.754318 87.338905 156.453094 -5.055846 -14.036539 1.229268 179.502960
66 -10.754299 87.338936 156.453094 -5.057772 -14.126126 1.237481 179.502960
67 -10.754299 87.338936 156.453094 -5.059808 -14.216309 1.245736 179.502960
[scope_part2]
64 -10.754299 82.597351 156.859894 -5.601507 28.850016 -2.709474 177.603500
65 -10.754318 82.597305 156.859894 -5.607064 28.952591 -2.720872 177.603470
66 -10.754299 82.597351 156.859894 -5.612661 29.056133 -2.732513 177.603500
67 -10.754299 82.597351 156.859894 -5.618417 29.160263 -2.744244 177.603500
[front_lower_left_part2]
64 -55.193634 141.618408 32.268219 0.000000 -0.000000 13.879390 155.381317
65 -55.193558 141.618347 32.268372 0.000000 -0.000000 13.958171 155.381241
66 -55.193634 141.618408 32.268219 0.000000 -0.000000 14.037274 155.381317
67 -55.193634 141.618408 32.268219 0.000000 -0.000000 14.116533 155.381317
[front_lower_left_part3]
64 -10.943831 108.509445 -11.124877 35.886578 -7.704056 -25.721956 109.625862
65 -10.943831 108.509369 -11.124877 35.877609 -7.751848 -25.655233 109.625786
66 -10.943755 108.509483 -11.124877 35.868080 -7.802176 -25.584984 109.625893
67 -10.943831 108.509521 -11.124877 35.858131 -7.854795 -25.511629 109.625931
[front_lower_right_part2]
64 55.193668 141.618195 32.268372 0.000000 0.000000 -18.031410 155.381149
65 55.193665 141.618195 32.268372 0.000000 0.000000 -18.085472 155.381149
66 55.193668 141.618195 32.268372 0.000000 0.000000 -18.139774 155.381149
67 55.193668 141.618195 32.268372 0.000000 0.000000 -18.194090 155.381149
[front_lower_right_part3]
64 10.943947 108.509445 -11.124877 35.415817 9.886348 22.644167 109.625870
65 10.943793 108.509445 -11.124725 35.407566 9.919950 22.596203 109.625839
66 10.943737 108.509590 -11.124725 35.398342 9.957141 22.543028 109.625984
67 10.943813 108.509590 -11.124725 35.388680 9.996283 22.487061 109.625992
[front_top_left_part2]
64 -85.876892 137.395172 57.219696 9.850637 0.549755 19.122387 171.832382
65 -86.013359 137.394791 57.227173 9.851210 0.539363 19.182219 171.902802
66 -86.149582 137.394562 57.234650 9.851779 0.528963 19.242056 171.973312
67 -86.285255 137.394257 57.242126 9.852350 0.518663 19.301584 172.043564
[front_top_left_part3]
64 -28.216438 149.656830 49.959564 -26.035202 -2.180485 -62.990463 160.278793
65 -28.216476 149.656830 49.959641 -26.037333 -2.153262 -62.934681 160.278824
66 -28.216400 149.656830 49.959717 -26.039526 -2.124403 -62.875595 160.278839
67 -28.216400 149.656738 49.959564 -26.041685 -2.095540 -62.816494 160.278702
[front_top_right_part2]
64 79.993713 137.568207 52.782288 8.075516 1.049552 -22.148685 167.660294
65 80.114410 137.568436 52.775574 8.074305 1.058905 -22.214668 167.715988
66 80.235184 137.568665 52.769012 8.073089 1.068275 -22.280823 167.771851
67 80.355576 137.568970 52.762295 8.071871 1.077617 -22.346676 167.827576
[front_top_right_part3]
64 28.216457 149.656982 49.959641 -25.897945 3.523175 65.750229 160.278961
65 28.216528 149.656906 49.959488 -25.900873 3.500053 65.702507 160.278854
66 28.216480 149.656982 49.959641 -25.903797 3.476182 65.653259 160.278961
67 28.216448 149.656982 49.959717 -25.906851 3.451688 65.602676 160.278976
